<mxfile host="65bd71144e">
    <diagram id="kCN99qefXOKExVSJ1q4E" name="Page-1">
        <mxGraphModel dx="2083" dy="568" grid="1" gridSize="10" guides="1" tooltips="1" connect="1" arrows="1" fold="1" page="1" pageScale="1" pageWidth="850" pageHeight="1100" math="0" shadow="0">
            <root>
                <mxCell id="0"/>
                <mxCell id="1" parent="0"/>
                <mxCell id="2" value="&lt;b&gt;&lt;font style=&quot;font-size: 27px&quot;&gt;Trail Buddy :)&lt;/font&gt;&lt;/b&gt;" style="whiteSpace=wrap;html=1;" parent="1" vertex="1">
                    <mxGeometry width="850" height="70" as="geometry"/>
                </mxCell>
                <mxCell id="5" value="List of all the cool trails that qualify for the search" style="whiteSpace=wrap;html=1;" parent="1" vertex="1">
                    <mxGeometry x="40" y="120" width="240" height="550" as="geometry"/>
                </mxCell>
                <mxCell id="6" value="Weather" style="whiteSpace=wrap;html=1;" parent="1" vertex="1">
                    <mxGeometry x="380" y="120" width="375" height="230" as="geometry"/>
                </mxCell>
                <mxCell id="8" value="Information about the trail" style="whiteSpace=wrap;html=1;" parent="1" vertex="1">
                    <mxGeometry x="380" y="410" width="390" height="230" as="geometry"/>
                </mxCell>
                <mxCell id="9" value="" style="ellipse;whiteSpace=wrap;html=1;aspect=fixed;" vertex="1" parent="1">
                    <mxGeometry x="30" y="22.5" width="25" height="25" as="geometry"/>
                </mxCell>
            </root>
        </mxGraphModel>
    </diagram>
</mxfile>